<svg xmlns="http://www.w3.org/2000/svg" xmlns:xlink="http://www.w3.org/1999/xlink" version="1.1" x="0px" y="0px" viewBox="0 0 100 125" enable-background="new 0 0 100 100" xml:space="preserve"><g display="none"><g display="inline" opacity="0.2"><g><circle fill="none" stroke="#000000" stroke-width="4" stroke-linecap="round" stroke-linejoin="round" stroke-miterlimit="10" cx="34.78" cy="38.597" r="10.994"/><line fill="none" stroke="#000000" stroke-width="4" stroke-linecap="round" stroke-linejoin="round" stroke-miterlimit="10" x1="34.78" y1="15.408" x2="34.78" y2="20.046"/><line fill="none" stroke="#000000" stroke-width="4" stroke-linecap="round" stroke-linejoin="round" stroke-miterlimit="10" x1="18.383" y1="22.2" x2="21.66" y2="25.48"/><line fill="none" stroke="#000000" stroke-width="4" stroke-linecap="round" stroke-linejoin="round" stroke-miterlimit="10" x1="11.591" y1="38.597" x2="16.229" y2="38.597"/><line fill="none" stroke="#000000" stroke-width="4" stroke-linecap="round" stroke-linejoin="round" stroke-miterlimit="10" x1="18.383" y1="54.994" x2="21.663" y2="51.715"/><line fill="none" stroke="#000000" stroke-width="4" stroke-linecap="round" stroke-linejoin="round" stroke-miterlimit="10" x1="34.78" y1="61.787" x2="34.78" y2="57.147"/><line fill="none" stroke="#000000" stroke-width="4" stroke-linecap="round" stroke-linejoin="round" stroke-miterlimit="10" x1="51.177" y1="54.994" x2="47.896" y2="51.715"/><line fill="none" stroke="#000000" stroke-width="4" stroke-linecap="round" stroke-linejoin="round" stroke-miterlimit="10" x1="57.969" y1="38.598" x2="53.331" y2="38.598"/><line fill="none" stroke="#000000" stroke-width="4" stroke-linecap="round" stroke-linejoin="round" stroke-miterlimit="10" x1="51.177" y1="22.2" x2="47.896" y2="25.48"/></g><path fill="none" stroke="#000000" stroke-width="4" stroke-linecap="round" stroke-linejoin="round" stroke-miterlimit="10" d="    M76.274,83.335c-6.798,1.599-13.602-0.716-18.055-5.474c3.045,0.909,6.361,1.063,9.678,0.286    c10.116-2.379,16.389-12.51,14.01-22.625c-0.78-3.317-2.396-6.215-4.567-8.537c6.244,1.867,11.348,6.924,12.947,13.725    C92.664,70.827,86.392,80.956,76.274,83.335z"/></g></g><g><g><g><path d="M25.757,44.705c-3.115-1.655-1.259-7.467-0.133-9.885c1.921-4.125,7.955-5.119,11.968-4.251     c5.354,1.158,7.166,7.601,5.137,12.128c-3.277,7.315-12.179,4.197-17.83,2.357c-1.845-0.601-2.629,2.296-0.797,2.893     c7.77,2.53,17.463,4.644,21.592-4.571c2.707-6.041-0.535-12.996-6.426-15.428c-5.404-2.232-13.449,0.195-16.234,5.358     c-2.061,3.822-3.523,11.476,1.21,13.99C25.95,48.202,27.466,45.613,25.757,44.705L25.757,44.705z"/></g></g><g><g><path d="M33.25,15.5c0.001,1.647,0.053,3.269,0.304,4.899c0.125,0.809,1.127,1.245,1.845,1.047     c0.856-0.235,1.173-1.038,1.048-1.845c-0.209-1.354-0.196-2.735-0.196-4.101C36.249,13.565,33.249,13.565,33.25,15.5L33.25,15.5z     "/></g></g><g><g><path d="M48.398,26.696c1.512-0.583,2.556-2.015,3.662-3.136c1.359-1.377-0.761-3.5-2.121-2.121     c-0.441,0.447-0.861,0.916-1.302,1.364c-0.27,0.274-0.547,0.54-0.834,0.794c-0.065,0.057-0.131,0.113-0.198,0.167     c0.146-0.109,0.154-0.117,0.026-0.023c-0.11,0.079-0.493,0.241-0.03,0.062c-0.763,0.294-1.281,0.997-1.048,1.845     C46.754,26.378,47.635,26.991,48.398,26.696L48.398,26.696z"/></g></g><g><g><path d="M52.5,40.25c1.504-0.019,2.996-0.231,4.5-0.25c1.934-0.023,1.936-3.023,0-3c-1.504,0.019-2.996,0.231-4.5,0.25     C50.566,37.273,50.564,40.273,52.5,40.25L52.5,40.25z"/></g></g><g><g><path d="M46.439,52.811c1.127,1.097,2.462,1.929,3.804,2.735c1.663,0.998,3.17-1.596,1.514-2.591     c-1.126-0.676-2.25-1.345-3.196-2.265C47.174,49.34,45.051,51.459,46.439,52.811L46.439,52.811z"/></g></g><g><g><path d="M32.554,57.649c0.25,1.036,0.427,1.91,0.446,2.851c0.041,1.932,3.041,1.936,3,0c-0.025-1.21-0.27-2.475-0.554-3.649     C34.992,54.971,32.1,55.769,32.554,57.649L32.554,57.649z"/></g></g><g><g><path d="M18.811,57.061c1.25-1,2.5-2,3.75-3c0.64-0.512,0.53-1.591,0-2.121c-0.626-0.626-1.483-0.51-2.121,0     c-1.25,1-2.5,2-3.75,3c-0.64,0.512-0.53,1.591,0,2.121C17.315,57.687,18.173,57.571,18.811,57.061L18.811,57.061z"/></g></g><g><g><path d="M9.75,40.5c1.578-0.021,3.747-0.607,5.243,0.045c1.755,0.765,3.283-1.819,1.514-2.591     c-2.177-0.949-4.46-0.486-6.757-0.455C7.817,37.526,7.814,40.526,9.75,40.5L9.75,40.5z"/></g></g><g><g><path d="M16.689,23.061c0.694,0.561,1.427,1.042,2.182,1.515c0.199,0.125,0.512,0.329,0.633,0.429     c-0.015-0.012,0.349,0.373,0.209,0.183c0.208,0.284,0.004-0.13,0.091,0.211c0.479,1.873,3.372,1.078,2.893-0.798     c-0.49-1.921-2.496-2.539-3.886-3.662c-0.635-0.514-1.498-0.624-2.121,0C16.157,21.472,16.053,22.546,16.689,23.061     L16.689,23.061z"/></g></g><g><g><path d="M59.352,79.196c18.955,3.761,30.312-18.965,18.709-33.257c-1.22-1.503-3.329,0.634-2.121,2.121     c9.705,11.956,0.11,31.398-15.791,28.243C58.26,75.929,57.454,78.82,59.352,79.196L59.352,79.196z"/></g></g><g><g><path d="M60.102,80.446c11.216,3.314,21.637,3.564,27.693-7.939c5.727-10.875,0.014-21.776-10.646-26.203     c-1.786-0.742-2.557,2.162-0.797,2.893c10.063,4.179,13.118,13.696,8.115,23.198c-4.978,9.453-15.037,7.68-23.568,5.159     C59.039,77.004,58.25,79.899,60.102,80.446L60.102,80.446z"/></g></g></g><text x="0" y="115" fill="#000000" font-size="5px" font-weight="bold" font-family="'Helvetica Neue', Helvetica, Arial-Unicode, Arial, Sans-serif">Created by Linseed Studio</text><text x="0" y="120" fill="#000000" font-size="5px" font-weight="bold" font-family="'Helvetica Neue', Helvetica, Arial-Unicode, Arial, Sans-serif">from the Noun Project</text></svg>